<?xml version="1.0" encoding="UTF-8"?><svg id="Camada_1" xmlns="http://www.w3.org/2000/svg" viewBox="0 0 838.38 438.72"><defs><style>.cls-1{fill:#fff;stroke-width:0px;}</style></defs><path class="cls-1" d="M0,438.72c43.89-48.09,186.52-201.21,308.55-275.04,22.97-13.9,61-35.39,105.24-26.62,46.47,9.22,75.08,46.77,86.36,63.65,46.87-67.85,128.1-81.16,171.96-48.13,37.24,28.05,45.57,87.62,26.31,126.43-27.76,55.93-113.04,86.4-197.68,56.05,14.52,8.31,61.68,32.97,126.43,28.11,72.74-5.45,117.53-44.39,128.53-54.54-3.72-8.35-4.83-17.11-3.63-25.43,2.7-18.75,16.55-29.11,19.71-31.48,23.28-17.45,52.67-7.01,55.13-6.1,17.6-83.08-17.97-168.6-88.75-213.92-73.27-46.92-169.64-41.39-238,14-15.05-12.53-55.41-42.63-113-45-6.18-.25-69.42-1.97-122,39-40.62,31.65-108.93,115.34-108.96,115.37,0,0,0,0,0,0-.01.02-.02.02-.02.02-.77.85-2.87,3.18-3.92,4.35-1.01,1.12-2.54,2.82-3.53,3.92,0,0-3.56,3.89-8.61,9.09-45.62,47.07-88.03,81.6-117.14,103.65,23.45-9.53,48.7-21,75.1-34.81,23.04-12.06,43.93-24.34,62.72-36.32-19.16,37.59-43.18,79.19-160.78,233.73Z"/><ellipse class="cls-1" cx="802.78" cy="287.3" rx="35.6" ry="31.5"/></svg>