<?xml version="1.0" encoding="UTF-8"?>
<svg id="Camada_1" xmlns="http://www.w3.org/2000/svg" version="1.1" viewBox="0 0 1920 1080">
  <!-- Generator: Adobe Illustrator 29.0.0, SVG Export Plug-In . SVG Version: 2.1.0 Build 186)  -->
  <defs>
    <style>
      .st0 {
        fill: #fff;
      }
    </style>
  </defs>
  <path class="st0" d="M919.2,54.38c11.04,18.93,19.47,60.97,9.19,78.59-4.71,8.07-129.11,84.31-154.07,106.52-38.79,34.53-123.31,125.98-122.08,179.47.98,42.66,66.74,24.02,97.28,29.27,268.54,46.21,300.34,433.36,68.49,527.59-185.46,75.37-340.34-75.4-351.69-257.62-18.31-293.99,194.16-523.3,429.65-663.83h23.24ZM621.1,578.01c-96.29,91.12-44.18,290.47,88.69,314.8,140.04,25.64,179.8-118.7,162.19-231.39-16.88-108-172.49-157.58-250.88-83.4Z"/>
  <path class="st0" d="M1534.95,54.38c11.04,18.93,19.47,60.97,9.19,78.59-4.71,8.07-129.11,84.31-154.07,106.52-38.79,34.53-123.31,125.98-122.08,179.47.98,42.66,66.74,24.02,97.28,29.27,268.54,46.21,300.34,433.36,68.49,527.59-185.46,75.37-340.34-75.4-351.69-257.62-18.31-293.99,194.16-523.3,429.65-663.83h23.24ZM1236.85,578.01c-96.29,91.12-44.18,290.47,88.69,314.8,140.04,25.64,179.8-118.7,162.19-231.39-16.88-108-172.49-157.58-250.88-83.4Z"/>
  <path class="st0" d="M1906.72,897.41v23.1c-19,103.32-186.51,104.9-187.08-5.61-.6-117.57,153.23-115.58,187.08-17.48Z"/>
  <path class="st0" d="M326.65,458.42c-9.09,13.83-73.96-10.95-81.9,51.52-15.48,121.85,11.44,277.57,2.09,403.33,10.68,30.54,109.95,14.64,79.19,64.16-9.76,15.71-260.72,19.72-289.63,6.44-11.35-5.21-31.15-29.38-23.34-40.14,10.63-14.65,83.9,5.39,92.96-40.46,10.5-53.13,8.1-333.42.49-393.28-7.11-55.89-25.5-29.75-61.49-42.8-43.39-15.73-32.46-46.53,8.97-54.49,31.62-6.07,256.81-3.95,267.54,10.6,5.93,8.04,8.54,29.95,5.13,35.13Z"/>
</svg>