<?xml version="1.0" encoding="UTF-8"?>
<svg id="Camada_1_Imagem" data-name="Camada 1 Imagem" xmlns="http://www.w3.org/2000/svg" version="1.1" viewBox="0 0 59.15 78.52">
  <defs>
    <style>
      .cls-1 {
        fill: #fff;
        stroke-width: 0px;
      }
    </style>
  </defs>
  <path class="cls-1" d="M52.37,3.2c.66-.37,1.24-.63,1.86-.82.64-.19.78-.05.92.58.15.65-.07,1.16-.36,1.69-.37.7-.71,1.41-1.1,2.19.66-.27,1.25-.52,1.88-.64.47-.09.59-.04.6.42.03,1.09-.17,2.12-.64,3.11-.16.32-.3.65-.45.98.16.1.27,0,.35-.08.49-.5,1.18-.65,1.77-.95.43-.22.74.03.67.55-.08.57-.25,1.13-.4,1.69-.37,1.33-.85,2.59-1.83,3.62-.34.35-.54.84-.78,1.32.58-.14,1.16-.22,1.73-.31,1.02-.17,1.42.26,1.08,1.26-.39,1.15-1.03,2.15-1.95,2.96-.81.7-1.43,1.58-2.14,2.42.21-.08.41-.15.62-.23,1.26-.46,2.54-.83,3.91-.62.39.06.8.47.77.87-.04.55-.12,1.09-.47,1.56-.66.89-1.31,1.77-2.27,2.37-.28.17-.62.23-.91.53.62.18.87.67,1.16,1.14.32.51.35.78-.02,1.28-.1.14-.12.19-.01.35.62.87.49,1.45-.42,2.07-.02.02-.04.05-.06.09.21.25.4.52.54.82.22.49.23.95-.13,1.37-.19.21-.24.41-.16.68.16.55-.17.9-.55,1.2-.26.21-.36.38-.19.73.36.75.24,1.06-.46,1.55-.15.1-.1.22-.08.33.14.68-.21,1.1-.78,1.34-.28.12-.28.26-.24.5.13.7.04.87-.61,1.15-.11.05-.12.1-.13.2,0,.8,0,.82-.73,1.07-.31.11-.53.18-.35.6.12.27-.04.52-.33.64-.12.05-.24.06-.15.25.54,1.15.24,2.21-.33,3.26-.42.76-1.02,1.28-1.73,1.73-1.19.77-2.31,1.63-3.35,2.6-.04.04-.08.09-.15.19.79-.17,1.52-.33,2.25-.47.15-.03.31-.03.46,0,.09.02.15.12.08.22-.05.07-.14.2-.21.09-.2-.3-.44-.09-.62-.04-3.8.84-7.02,2.75-9.89,5.32-.36.32-.67.69-1.13.98-.04-.3.14-.44.29-.58,2.31-2.23,4.87-4.07,7.91-5.18.31-.11.55-.24.71-.56.13-.28.37-.5.61-.71.94-.84,1.97-1.57,3.02-2.26.7-.46,1.2-1.1,1.64-1.8.55-.87.41-2.8-.74-3.56-1.78-1.18-3.67-1.67-5.77-1.24-.47.1-.9.27-1.29.55-.01-.31,0-.34.32-.51.83-.43,1.73-.58,2.65-.54,1.35.06,2.67.35,3.96.79.77.26,1.53.32,2.25-.2.27-.2.32-.39.21-.68-.12-.33-.35-.55-.64-.72-1.2-.7-2.46-1.25-3.8-1.63-.81-.23-1.58-.56-2.42-.72.2-.14.41-.25.64-.17,1.72.53,3.49.96,5.06,1.89.43.26.84.55,1.34.66.41.09.54-.01.56-.44.03-.64-.34-1.02-.85-1.29-1.43-.77-2.97-1.27-4.54-1.69-.6-.16-1.21-.32-1.85-.49.17-.15.3-.25.49-.21,1.7.44,3.43.8,5.04,1.54.48.22.92.53,1.38.8.13.08.28.16.43.18.38.05.74-.01.91-.41.15-.34-.13-.94-.55-1.15-1.11-.57-2.27-1-3.5-1.24-1.29-.26-2.58-.58-3.89-.72-.18-.02-.36-.09-.62-.17.43-.19.8-.16,1.14-.09,1.76.32,3.53.58,5.24,1.13.74.24,1.4.64,2.04,1.05.26.17.49.23.74.08.25-.16.24-.44.17-.68-.18-.63-.53-1.1-1.18-1.36-2.29-.92-4.71-1.18-7.14-1.42-.19-.02-.37-.04-.63-.08.39-.29.77-.27,1.14-.23,1.67.2,3.34.34,4.98.73.79.19,1.51.51,2.22.89.42.23.64,0,.92-.2.28-.21.35-.46.2-.79-.15-.33-.39-.56-.74-.67-1.46-.46-2.95-.75-4.47-.93-.97-.11-1.92-.33-2.9-.33-.41,0-.81.11-1.27,0,.48-.16.92-.25,1.37-.24,1.63.05,3.25.18,4.87.47,1.08.2,2.09.53,3.09.96.35.16.51-.11.58-.41.14-.65-.53-1.58-1.29-1.75-1.5-.33-3.02-.57-4.57-.62-1.11-.03-2.23-.09-3.34-.08-.04,0-.08-.03-.16-.07.32-.18.61-.32.95-.31,1.82.03,3.64.01,5.45.26.64.09,1.24.33,1.87.47.63.14,1.12-.06,1.26-.62.12-.47-.32-1.06-.88-1.15-1.51-.24-3.03-.35-4.56-.26-1.3.08-2.6.15-3.89.24-.23.01-.45.06-.76.1.54-.49,1.14-.51,1.73-.55,1.17-.08,2.35-.2,3.52-.22,1.16-.02,2.33-.06,3.46.26.12.03.25.04.37.06.29.04.54-.06.69-.31.15-.26.05-.53-.12-.75-.51-.66-1.14-1.12-2.02-1.14-1.86-.04-3.7.1-5.52.5-.68.15-1.4.11-2.02.52.09-.39.42-.42.68-.54.77-.34,1.62-.36,2.43-.54,1.31-.3,2.64-.37,3.97-.47,1.97-.15,3.33-1.26,4.37-2.84.19-.28.25-.61.21-.95-.05-.48-.31-.72-.8-.76-.66-.06-1.27.19-1.88.37-3.18.95-6.19,2.26-9.03,3.98-.47.28-.94.58-1.66.53,1.11-.36,1.85-1.06,2.67-1.66.73-.53,1.56-.93,2.41-1.16,1.85-.48,3.15-1.69,4.37-3.04.88-.97,1.72-1.97,2.57-2.97.36-.43.56-.93.61-1.5.03-.31-.06-.28-.31-.25-2.77.41-4.9,1.99-7.06,3.63-1.73,1.31-2.96,3.1-4.67,4.39-.37.28-.56.73-.89,1.05.2-.57.59-1.02.96-1.47,2.14-2.54,4.58-4.75,7.37-6.56.73-.48,1.42-.96,1.94-1.67,1.24-1.68,2.34-3.43,2.62-5.56.06-.47,0-.53-.45-.5-.24.01-.46.1-.66.22-1.41.81-2.7,1.75-3.77,3.01-.86,1.02-1.86,1.91-2.77,2.9-1.17,1.27-2.31,2.56-3.44,3.86-.2.23-.33.53-.46.82-.7,1.51-1.72,2.81-2.74,4.1-.21.27-.4.55-.67.94.01-.42.14-.67.31-.87,1.19-1.43,2.19-2.97,3-4.66.65-1.36,1.74-2.41,2.75-3.5.92-.99,1.83-2,2.78-2.95.98-.98,1.94-1.99,3.01-2.89.55-.47.98-1.18,1.17-1.94.2-.79.47-1.56.43-2.4-.02-.39-.17-.48-.49-.35-.55.23-1.13.42-1.63.73-.79.48-1.51,1.06-2.27,1.6-2.53,1.82-4.34,4.28-6.14,6.74-.96,1.31-1.77,2.76-1.89,4.41-.1,1.33-.54,2.46-1.22,3.56-.37.6-.98.95-1.45,1.57-.03-.45.25-.61.44-.81.43-.44.78-.94,1.09-1.47.43-.74.63-1.53.64-2.38,0-1.35.51-2.54,1.23-3.65,1.69-2.58,3.51-5.07,5.78-7.18.8-.75,1.69-1.41,2.56-2.08.63-.48,1.06-1.1,1.39-1.8.26-.56.54-1.1.81-1.65.19-.37.29-.76.21-1.18-.04-.23-.16-.31-.4-.28-.53.08-1.04.23-1.5.52-1.2.75-2.29,1.65-3.42,2.51-1.02.77-1.87,1.71-2.84,2.53-.08.07-.16.15-.23.24-1.47,1.94-3.18,3.7-4.39,5.83-.68,1.19-1.05,2.47-1.31,3.8-.29,1.48-.58,2.95-.88,4.42-.06.31-.18.6-.29.9-.13.35-.31.69-.42,1.05-.11.36-.08.74-.07,1.12-.25-.37-.24-.78-.16-1.19.04-.25.12-.49.21-.72.56-1.35.72-2.76.68-4.2-.02-.94.25-1.79.63-2.63.65-1.42,1.36-2.8,2.29-4.06,1.49-2.02,2.92-4.1,4.79-5.81,1.14-1.04,2.29-2.06,3.53-2.97,1.04-.77,1.39-1.9,1.59-3.1.07-.39-.26-.29-.44-.24-.66.16-1.32.36-1.88.73-1.57,1.04-3,2.26-4.31,3.63-.8.84-1.62,1.67-2.35,2.57-1.55,1.91-2.63,4.09-3.74,6.26-.77,1.52-1.26,3.13-1.69,4.78-.23.88-.61,1.74-.81,2.65-.11.51-.08,1.01.02,1.54.17.93.29,1.88-.15,2.81,0-.41,0-.83,0-1.24,0-.69-.02-1.39-.32-2.03-.12-.26.11-.43.12-.66.01-.44.07-.88.2-1.3.38-1.23.7-2.46.92-3.74.14-.82.44-1.63.86-2.38.91-1.6,1.73-3.25,2.72-4.79,1.45-2.26,3.39-4.12,5.3-5.99.6-.59,1.29-1.1,1.82-1.76.06-.07.14-.13.21-.18,1-.7,2.11-1.18,3.29-1.47.71-.17.98.13.82.83-.16.71-.5,1.35-.83,2.13ZM50.42,43.85c.28.3.46.49.7.61.14.07.3.1.44-.01.11-.09.12-.22.07-.34-.06-.15-.18-.26-.35-.26-.25,0-.49,0-.86,0Z"/>
  <path class="cls-1" d="M20.31,56.93c.52-.27,1-.54,1.42-.97,1.24-1.27,1.73-2.77,1.55-4.51-.06-.55.05-1.1,0-1.65-.16-1.92-1.2-2.73-2.7-3.11-1.13-.28-2.25-.07-3.34.24-.74.21-1.48.4-2.17.77-.3.16-.55.12-.8-.14-.39-.42-.92-.65-1.39-.96-.26-.18-.33-.03-.32.21,0,.45.14.86.38,1.25.61.99.78,2.15,1.2,3.21.6,1.54,1.53,2.84,2.73,3.97.1.09.21.26.35.19.17-.09.06-.28.03-.42-.27-1.5-.17-2.99.39-4.4.31-.79,1.1-1.12,1.94-1.22.06,0,.13,0,.19,0,.41-.03.9-.15,1.12.26.19.36-.1.75-.28,1.09-.48.92-1.58,1.17-2.35.52-.38-.32-.49-.08-.59.2-.17.49-.25,1.01-.29,1.52-.04.5-.06,1.01,0,1.51.06.5.15.99.38,1.48-.25.05-.4-.05-.55-.16-.93-.66-1.65-1.49-2.32-2.42-.91-1.26-1.19-2.72-1.71-4.1-.34-.92-.88-1.79-.87-2.82,0-.03,0-.07-.02-.09-.68-.85-.09-1.63.17-2.4.43-1.27,1.42-2.08,2.52-2.77,1.69-1.06,3.53-1.61,5.51-1.76.5-.04.99-.13,1.5-.2-.05-.22-.23-.28-.37-.36-1.47-.82-2.36-2.14-3.11-3.57-.17-.32-.35-.48-.71-.58-1.23-.32-2.41-.8-3.54-1.42-.39-.22-.82-.31-1.25-.41-.71-.15-1.31-.51-1.78-1.07-.23-.27-.44-.6-.41-.93.05-.56-.26-.75-.68-.86-.36-.09-.66-.29-.98-.45-.34-.17-.68-.3-1.08-.28-.48.03-.92-.17-1.34-.39-.99-.5-2-.98-2.97-1.52-.96-.53-1.94-1.03-2.75-1.79-.58-.55-.83-1.26-.95-2.01-.06-.37.2-.67.58-.74.38-.07.76-.08,1.15.07.39.14.83.13,1.25.2.94.15,1.82.45,2.63.96.25.15.55.25.83.31,1.42.34,2.76.92,4.12,1.42.35.13.7.13,1.08.15,1.59.08,3.2-.13,4.78.21,1.63.35,3.12,1.02,4.58,1.77.96.49,1.97.45,3,.4,1.1-.05,2.2-.19,3.27-.45,1.09-.27,2.21-.48,3.2-1.06.18-.1.36-.2.41-.43.02-.08.05-.16.15-.14.08.02.11.1.12.18.01.2-.07.37-.14.54-.32.82-.89,1.47-1.45,2.13-.08.09-.21.15-.2.35.22.03.45.04.67.08.46.09.93.15,1.3.49.14.13.32.08.5.06.56-.05,1.06-.3,1.58-.46.1-.03.22-.11.31-.01.09.09.01.21-.03.31-.04.1-.09.21-.16.29-.28.33-.52.63.24.71-.45.38-.99-.18-1.35.3.22-.46.67-.7.92-1.28-1,.63-2.01.45-2.98.55-.47.05-.94.1-1.37.31-.08.04-.18.13-.24,0-.05-.1.04-.18.11-.23.41-.29.9-.35,1.38-.42.17-.02.34-.02.51-.04.01-.2-.13-.16-.22-.18-.11-.03-.22-.04-.32-.06-.77-.18-1.5-.21-2.14.41-.22.22-.56.31-.9.4,1.41-.86,2.56-1.96,3.24-3.46-.59.38-1.33.56-2.06.76-1.01.29-2.04.51-3.07.73-.96.21-1.89.71-2.45,1.49-.38.53-.52.38-.88.14-.72-.47-1.54-.48-2.48-.38.96-.54,1.8-.47,2.62.04.25.16.37.14.57-.1.39-.49.94-.8,1.46-1.17-.48.01-.93-.16-1.43-.06-.56.11-1.1-.16-1.62-.4-.93-.43-1.82-.93-2.76-1.33-1.37-.59-2.83-.71-4.28-.81-.45-.03-.91-.03-1.37-.05-.23-.01-.46,0-.76.17,1.47.48,2.95.44,4.36.79-.42.18-.84.06-1.24,0-2.22-.3-4.37-.84-6.42-1.77-.1-.05-.2-.08-.31-.11-1.55-.43-3.04-1-4.54-1.57-.88-.33-1.82-.35-2.72-.56-.53-.12-.84.36-.68.94.24.89.86,1.49,1.6,1.96,1.62,1.02,3.36,1.83,5.08,2.69.26.13.58.27.85.24.76-.08,1.32.3,1.9.67.12.08.25.14.38.19.37.15.68.18.86-.3.09-.24.27-.46.64-.64-.37.65-.69,1.2-.61,1.88.08.69.46,1.16,1.08,1.53-.03-.3-.3-.43-.26-.66,1.69,1.27,3.71,1.88,5.58,2.79.16.08.33.18.57.14-.3-.91-.79-1.74-1.04-2.74.32.15.37.39.46.59.44.96.82,1.94,1.3,2.88.83,1.61,1.91,2.98,3.68,3.69.52.21,1.01.39,1.59.45,1.45.16,2.81.67,3.96,1.62.16.13.36.26.37.52-.2.02-.33-.1-.47-.19-2.07-1.37-4.35-1.79-6.79-1.6-1.54.12-2.96.65-4.41,1.14-.97.33-1.81.85-2.54,1.57-.68.66-1.05,1.51-1.46,2.34-.04.08-.09.2.02.25.72.35,1.15,1.06,1.82,1.47.2.13.29.04.45-.04,1.24-.67,2.46-1.42,3.92-1.5,2.59-.14,4.89,1.2,5.49,3.7.48,1.98-.01,3.86-1.15,5.55-.48.72-.98,1.42-1.63,2.01-.39.36-.83.66-1.4.69ZM23.48,53.26c.29-.37.4-.81.5-1.25.42-1.92.65-3.83-1.07-5.31-1.17-1-2.49-1.57-4.09-1.37-1.36.17-2.5.88-3.7,1.44-.27.12-.44.14-.66-.07-.48-.45-.99-.87-1.49-1.3-.1-.09-.22-.22-.37-.13-.15.09-.27.23-.28.41-.02.26.17.39.36.51.49.3,1.01.58,1.4,1.02.36.4.7.46,1.21.21,1.75-.87,3.59-1.31,5.56-1.01.38.06.72.19,1.04.39,1.45.9,1.82,2.29,1.7,3.87-.06.86-.12,1.72-.11,2.59ZM19.12,51.26c.82.02,1.42-.46,1.59-1.19.05-.23-.06-.26-.24-.29-.56-.1-1.09,0-1.58.28-.31.18-.82.3-.71.74.1.43.61.41.94.46Z"/>
  <path class="cls-1" d="M13,73.85c-.06,0-.14.03-.18,0-.09-.05,0-.11.03-.13.48-.3.36-.57-.07-.79.14-.18.26-.15.39-.07.2.12.42.22.59.38.2.19.37.19.58.04.1-.07.22-.12.34-.16.34-.14.55-.28.36-.73-.17-.41-.13-.86.15-1.25-.09.42-.08.84,0,1.26.03.17.11.28.28.13.29-.26.62-.47.78-.86-.73-.15-.77-.28-.37-.88.09-.14.25-.24.26-.5-.5.14-.68.58-.97.88.05-.25.15-.47.33-.65.06-.06.16-.13.13-.23-.04-.13-.18-.11-.28-.11-.52.01-1.04.1-1.56,0h.01c-.29-.47-.18-.77.16-1.28,1.1-1.62,2.05-3.35,2.81-5.17.61-1.47.97-2.99.91-4.59-.02-.62.02-1.22.27-1.8.07-.17.11-.37.34-.41.02.03.05.07.04.09-.46.8-.32,1.67-.3,2.53.03,1.27-.19,2.51-.66,3.69-.85,2.14-1.82,4.22-3.34,5.98-.09.1-.24.2-.16.36.09.17.26.25.47.27.59.06,1.19.06,1.76.25.3.1.42-.15.56-.33.57-.71.93-1.53,1.31-2.34.91-1.92,1.78-3.85,2.15-5.97.1-.58.35-1.1.63-1.55-.68,4.17-2.27,7.99-4.93,11.4.26.11.46.04.64,0,.66-.18,1.33-.23,2-.28.37-.03.63.19.96.24.26.04.43-.03.55-.25,1.05-1.89,2.6-3.33,4.23-4.71,1.49-1.27,2.59-2.86,3.47-4.6.12-.23.24-.46.42-.79.07.36-.05.55-.13.74-.78,1.78-1.79,3.39-3.29,4.66-.31.26-.26.41,0,.65,2.02,1.91,4.39,2.81,7.18,2.47.05,0,.11-.02.16,0-.99.48-2.03.5-3.07.24-1.8-.44-3.47-1.14-4.65-2.66-.19-.25-.31-.09-.45.03-1.37,1.13-2.6,2.37-3.49,3.92-.18.32-.41.46-.77.5-.87.1-1.52,1.11-1.31,1.98.14.59.37,1.12.92,1.64-.65-.3-1.05-.94-1.16-1.77-.1-.77.27-1.35.92-1.81-.55-.24-1.03-.2-1.53-.15-.55.06-.93.21-1.25.73-.42.67-1.12,1.08-1.8,1.47-.15.09-.29.07-.4,0-.46-.3-.74-.09-.98.3h.01Z"/>
  <path class="cls-1" d="M38.76,62.4c.33-.01.59.15.88.24,2.81.92,5.32,2.39,7.68,4.14,1.88,1.4,3.93,2.54,6,3.63.24.13.57.39.76.19.19-.19-.05-.53-.18-.77-.8-1.45-1.99-2.49-3.47-3.2-.38-.18-.77-.34-1.16-.53-.13-.06-.31-.08-.36-.27.1-.13.24-.09.34-.05,1.94.72,3.77,1.61,4.98,3.38.5.74.92,1.53,1.12,2.42.04.19.11.39-.06.53-.18.15-.39.08-.58-.02-.47-.25-.96-.48-1.4-.78-1.93-1.27-4.02-2.32-5.77-3.83-2.48-2.15-5.34-3.58-8.3-4.87-.17-.07-.34-.15-.51-.23Z"/>
  <path class="cls-1" d="M36.77,22.57c-.86,1.28-.91,2.66-1,4.04-.09,1.37-.28,2.71-.87,3.98-.83,1.76-1.56,3.57-2.19,5.41-.24.71-.36,1.42-.34,2.17.03,1.02-.09,2.03-.17,3.05-.02.21-.01.6-.26.56-.22-.04-.03-.38,0-.58.17-1.05.28-2.11.2-3.18-.07-1.01.25-1.93.51-2.89.51-1.88,1.39-3.6,2.17-5.36.2-.45.34-.9.47-1.38.17-.64.03-1.27.05-1.9.04-1.41.4-2.72,1.25-3.87.01-.02.05-.02.18-.05Z"/>
  <path class="cls-1" d="M46.18,56.19c1.8-.93,3.75-1.18,5.43-2.1-4.83.22-9.06,2.05-12.92,4.87.1-.32.34-.52.58-.7,1.71-1.3,3.61-2.28,5.6-3.08,1.9-.77,3.87-1.31,5.92-1.44.35-.02.69-.04,1.03.04.13.03.25.06.29.2.04.16-.04.28-.16.36-.12.08-.24.16-.37.21-1.68.66-3.41,1.2-5.15,1.65-.04.01-.09,0-.26-.01Z"/>
  <path class="cls-1" d="M43.54,47.59c-.25-.25-.14-.49-.06-.7.61-1.56,2.93-2.78,4.52-2.18,1.28.49,1.75,1.4,1.27,2.68-.34.91-.94,1.67-1.57,2.39-.71.81-1.45,1.61-2.5,2.04.33-.31.66-.6.98-.92.78-.79,1.52-1.63,2.15-2.56.17-.25.32-.5.45-.77.71-1.43.03-2.57-1.58-2.68-1.63-.11-3.27,1.08-3.67,2.69Z"/>
  <path class="cls-1" d="M38.54,62.95c.37.15.64.41.92.65,1.14,1.01,2.2,2.11,3.24,3.23.57.61,1.14,1.22,1.79,1.74.22.18.46.33.7.48.1.06.23.16.34.06.11-.1.04-.24,0-.35-.29-.91-.77-1.72-1.3-2.5-.05-.08-.11-.15-.18-.25.24-.07.35.07.45.2.58.77,1.03,1.62,1.34,2.53.07.22.12.48-.08.66-.23.21-.48.08-.7-.03-.59-.28-1.08-.7-1.53-1.16-1.58-1.6-3.12-3.24-4.73-4.81-.11-.11-.28-.21-.25-.45Z"/>
  <path class="cls-1" d="M36.09,62.33c.5.61.84,1.31,1.21,2,.92,1.74,2,3.38,3.28,4.88.31.36.64.7,1.04.95.18.11.37.33.59.17.18-.13.09-.38.06-.58-.06-.42-.18-.83-.37-1.21-.05-.1-.13-.22,0-.29.13-.06.19.08.23.17.29.57.46,1.17.43,1.81-.02.43-.26.59-.66.44-.52-.19-.92-.54-1.29-.93-1.56-1.61-2.73-3.49-3.76-5.46-.33-.63-.63-1.26-.76-1.97Z"/>
  <path class="cls-1" d="M47.69,63.46c.79.28,1.58.48,2.39.65.49.1.98.2,1.48.29.11.02.25.07.31-.02.09-.13-.05-.23-.14-.31-.74-.76-1.59-1.38-2.57-1.8-1.76-.76-3.63-1.11-5.5-1.42-1.12-.19-2.25-.24-3.38-.18-.08,0-.19.05-.26-.09.16-.14.36-.16.55-.17,3.45-.03,6.74.61,9.79,2.28.64.35,1.19.82,1.67,1.37.13.14.25.31.15.51-.1.18-.29.16-.47.15-.96-.06-1.89-.32-2.78-.67-.43-.17-.89-.26-1.25-.58Z"/>
  <path class="cls-1" d="M48.51,60.45c.55-.12,1.09,0,1.63,0,.3,0,.75.12.85-.18.1-.3-.32-.49-.56-.67-1.78-1.29-3.8-1.9-5.97-2.07-.31-.02-.63.01-.96-.13.26-.21.55-.2.81-.19,2.38.08,4.57.76,6.48,2.22.19.14.36.31.5.49.29.38.14.76-.34.82-.83.1-1.64-.12-2.45-.3Z"/>
  <path class="cls-1" d="M32.99,37.44c-.31-2.54,2.88-7.17,6.27-7.94-3.29,1.7-5.49,4.25-6.27,7.94Z"/>
  <path class="cls-1" d="M38.38,49.63c-.49.11-.77-.11-1.04-.29-1.24-.87-2.25-1.96-3.03-3.25-.7-1.15-1.13-2.41-1.39-3.73-.03-.13-.06-.27.04-.5.86,3.27,2.4,6,5.43,7.78Z"/>
  <path class="cls-1" d="M35.36,66.31c-.3.58-.4,1.12-.84,1.49.88-1.47,1.08-3.05.75-4.71.19.45.23.91.23,1.38-.02,1.52.31,2.93,1.32,4.12.22.26.47.51.77.69.4.23.56.16.64-.3.06-.29,0-.59-.07-.95.32.38.37,1.2.15,1.5-.19.25-.43.22-.68.12-.38-.17-.68-.45-.96-.75-.64-.71-1.09-1.53-1.32-2.58Z"/>
  <path class="cls-1" d="M10.27,74.9c-.09.05-.18.11-.26.16-.17-.14.06-.3-.04-.45-.43.07-.77.31-1.11.56-.07.05-.17.12-.25.04-.09-.09,0-.17.05-.24.33-.5.83-.75,1.4-.87.14-.03.33.03.41-.17-.21-.16-.47-.12-.71-.14-.1,0-.26-.02-.24-.16.03-.16.18-.09.27-.06.51.21.92.14,1.34-.26.36-.34.83-.49,1.35-.33.23.07.33.19.27.41-.06.23-.23.19-.41.14-.41-.1-.81-.03-1.18.16-.08.04-.14.13-.23.16-.39.12.19.51-.16.59-.29.06-.44.2-.5.48,0,0,0-.01,0-.01Z"/>
  <path class="cls-1" d="M43.46,52.69c1.58-1.84,3.18-3.51,3.95-5.85.13.33.07.55,0,.76-.18.64-.5,1.22-.86,1.78-.61.97-1.3,1.89-2.12,2.7-.24.24-.49.47-.98.61Z"/>
  <path class="cls-1" d="M29.7,68.46c-.93-1.57-1.04-6.01-.36-7.62,0,1.26-.21,2.52-.13,3.79.08,1.29.3,2.55.5,3.83Z"/>
  <path class="cls-1" d="M43.42,28.03c-2.11-1.03-4.14-1.16-6.19,0-.02-.35.23-.46.42-.59.46-.29.98-.43,1.51-.5,1.28-.16,2.54-.11,3.7.56.2.11.39.24.56.53Z"/>
  <path class="cls-1" d="M38.03,31.87c-.5.38-1.01.73-1.49,1.14-1.19,1-1.94,2.28-2.4,3.75-.03.1-.01.26-.17.23-.13-.02-.14-.15-.14-.27,0-.08,0-.16.03-.23.68-1.99,1.84-3.58,3.77-4.55.11-.06.23-.09.35-.13l.05.06Z"/>
  <path class="cls-1" d="M32.17,48.02c-.18-.13-.25-.34-.33-.53-.3-.67-.46-1.4-.81-2.06-.14-.27-.01-.58.05-.88.11-.5.39-.91.69-1.45.07.51-.05.87-.18,1.2-.19.47-.14.91.03,1.37.26.69.51,1.39.61,2.12.01.07.04.15-.06.23Z"/>
  <path class="cls-1" d="M45.18,49.61c-.52,1.18-3.52,3.81-4.75,3.96.93-.67,1.82-1.23,2.57-1.95.76-.73,1.54-1.42,2.18-2.01Z"/>
  <path class="cls-1" d="M38.88,33.15c-.54.27-1,.45-1.41.7-1.1.67-2.07,1.47-2.51,2.75-.03.08-.06.16-.15.14-.08-.02-.13-.09-.13-.18,0-.11,0-.22.03-.32.4-1.34,2.65-3.05,4.16-3.09Z"/>
  <path class="cls-1" d="M26.22,32.36c.22-.07.41.02.61.11.42.19.77.48,1.08.82.65.72,1.27,1.47,2.05,2.07.09.07.25.17.16.3-.11.17-.26.02-.36-.05-.58-.39-1.07-.88-1.5-1.42-.52-.65-1.06-1.28-1.86-1.61-.08-.03-.18-.07-.16-.23Z"/>
  <path class="cls-1" d="M39.36,35.15c-.51.05-.98-.04-1.44.1-.89.27-1.7.63-2.16,1.51-.03.06-.06.12-.13.1-.1-.01-.12-.09-.13-.17-.02-.13.03-.24.09-.36.5-.97,2.3-1.75,3.35-1.46.15.04.31.06.44.27Z"/>
  <path class="cls-1" d="M42.49,37.61c.06-.07.12-.14.19-.2,1.19-.99,1.57-2.33,1.71-3.79.01-.13-.09-.37.14-.37.17,0,.16.22.16.34.03,1.5-.46,3.23-2.2,4.02Z"/>
  <path class="cls-1" d="M35.02,44.09c.96,1.71,2.13,3.24,3.84,4.45-1.1.02-3.56-2.93-3.84-4.45Z"/>
  <path class="cls-1" d="M32.74,48.35c.86,1.37,1.85,2.66,2.22,4.27-.79-1.4-1.69-2.74-2.22-4.27Z"/>
  <path class="cls-1" d="M28.12,62.69c-.31,1.83-.36,3.67.04,5.55-.7-.75-.74-4.63-.04-5.55Z"/>
  <path class="cls-1" d="M18.9,78.33c.16-.32.32-.6.36-.93.05-.43.09-.85-.11-1.25-.13-.26,0-.45.21-.54.22-.09.31.11.4.29.38.74-.13,2.15-.86,2.42Z"/>
  <path class="cls-1" d="M45.21,32.45c-.44-1.44-.91-2.87-2.24-3.79.32-.09.46-.09.73.18,1.02.99,1.51,2.2,1.51,3.61Z"/>
  <path class="cls-1" d="M35.56,43.09c1.74.8,3.61,1.04,5.48,1.3-1.95.09-3.8-.26-5.48-1.3Z"/>
  <path class="cls-1" d="M40.79,62.11c1.96,0,3.72.44,5.46.9-1.79-.18-3.57-.49-5.46-.9Z"/>
  <path class="cls-1" d="M15.75,28.61c-1.44.03-2.79-.02-3.85,1.09-.14-.33.03-.54.25-.68,1.09-.7,2.24-.91,3.6-.41Z"/>
  <path class="cls-1" d="M14.47,74.61c.84.49,1.68.58,2.58.45.88-.13,1.54.53,1.7,1.7-.23-.32-.33-.61-.51-.85-.37-.5-.81-.69-1.43-.56-.68.14-1.34-.01-1.97-.28-.16-.07-.36-.12-.38-.45Z"/>
  <path class="cls-1" d="M46.5,59.88c-1.73-.12-3.46-.25-5.21-.4,1.78-.27,3.49.03,5.21.4Z"/>
  <path class="cls-1" d="M6.82,73.03c.94.21,1.36-.68,2.11-.87.3-.08.59-.21.92-.11.15.04.33.07.29.29-.04.21-.19.2-.36.19-.41-.04-.82-.02-1.2.11-.19.07-.53.09-.38.47.05.13-.08.1-.14.1-.39,0-.77,0-1.16,0-.02-.06-.04-.13-.06-.19Z"/>
  <path class="cls-1" d="M42.73,38.86c.4-.29.81-.58,1.21-.88.59-.46.99-1.04,1.09-1.8.02-.13-.01-.36.16-.34.2.02.12.26.12.4-.01.47-.17.89-.45,1.26-.54.7-1.26,1.14-2.13,1.36Z"/>
  <path class="cls-1" d="M34.72,42.39c-.49-.23-.78-.55-1.04-.91-.63-.87-1.03-1.83-.98-2.93,0-.1-.02-.25.13-.25.08,0,.11.1.11.18-.03,1.51.72,2.66,1.68,3.73.02.02.03.05.09.18Z"/>
  <path class="cls-1" d="M36.04,63.83c.3.6.61,1.2.91,1.8.28.56.58,1.12,1.01,1.59.07.07.22.16.11.27-.13.13-.23-.03-.3-.11-.14-.14-.28-.3-.4-.46-.65-.93-1.14-1.94-1.45-3.03.04-.01.08-.03.12-.04Z"/>
  <path class="cls-1" d="M39,36.79c-.96-.71-1.74-.33-2.48.32-.07.06-.14.15-.24.08-.1-.06-.07-.15-.02-.25.32-.69,1.77-1.14,2.41-.74.19.12.35.26.33.59Z"/>
  <path class="cls-1" d="M27.48,53.75c1.06-1.06,2.5-1.79,2.58-3.56.01.67-.04,1.3-.39,1.87-.52.84-1.46,1.13-2.19,1.69Z"/>
  <path class="cls-1" d="M38.64,64.51c.36.43.72.86,1.08,1.28.41.48.83.94,1.3,1.36.08.07.2.15.13.26-.08.12-.2.04-.28-.03-.92-.8-1.73-1.7-2.32-2.78.03-.03.07-.06.1-.09Z"/>
  <path class="cls-1" d="M41.36,51.94c-.77.99-2.59,1.91-3.36,1.68,1.27-.28,2.23-1.15,3.36-1.68Z"/>
  <path class="cls-1" d="M30.5,57.37c.31,1.1.68,2.19,1.3,3.26-.78-.4-1.64-2.57-1.3-3.26Z"/>
  <path class="cls-1" d="M12.03,74.86c.23.38.8.39.89.24.31-.51.54-.05.8-.04.15,0,.3-.04.46-.07-.08.2-.23.35-.4.28-.36-.14-.67-.01-.98.12-.46.19-.79.03-1.06-.33-.23-.3-.53-.58-.44-1.05.39.21.33.72.73.86,0,0,0,0,0,0Z"/>
  <path class="cls-1" d="M39.59,59.01c.94-.83,2.04-1.28,3.28-1.42-1.09.48-2.2.91-3.28,1.42Z"/>
  <path class="cls-1" d="M29.52,33.02c.23.61.46,1.19.95,1.59.2.16.35.7.78.25.04-.04.16.08.19.17.04.13.03.27-.12.3-.12.03-.25.03-.37,0-.66-.17-1.5-1.29-1.5-1.97,0-.12.04-.23.06-.35Z"/>
  <path class="cls-1" d="M30.79,47.05c-.38,1.25.21,2.51-.05,3.85-.46-1.05-.43-3.29.05-3.85Z"/>
  <path class="cls-1" d="M35.41,54.85c1.05,1.02,1.26,2.34,1.31,3.72-.4-1.25-.52-2.6-1.31-3.72Z"/>
  <path class="cls-1" d="M33.55,62.43c-.85-.56-1.42-2.05-1-2.79.12,1.09.63,1.91,1,2.79Z"/>
  <path class="cls-1" d="M42.53,31.84c-.12-.03-.11-.14-.13-.23-.2-.92-.75-1.53-1.6-1.9-.08-.04-.2-.04-.19-.16.01-.1.11-.09.19-.09.93-.01,2.02,1.49,1.73,2.38Z"/>
  <path class="cls-1" d="M36.4,38.8c-.58-.3-1.14-.51-1.76-.55-.25-.01-.5-.02-.75.02-.11.02-.24.02-.25-.13-.01-.11.09-.16.17-.19.61-.25,2.29.08,2.59.85Z"/>
  <path class="cls-1" d="M38.68,41.28c-1.07-.25-2.15-.44-2.9-1.36.94.51,1.98.82,2.9,1.36Z"/>
  <path class="cls-1" d="M41.7,33.34c-.05-.22-.09-.45-.14-.67-.15-.59-.4-1.12-.9-1.5-.09-.06-.28-.11-.16-.27.09-.11.24-.03.35.04.61.37.9.94.99,1.63.03.25.05.5-.13.77Z"/>
  <path class="cls-1" d="M41.74,35.47c.52-.78.87-1.63,1.07-2.54.32.8-.27,2.16-1.07,2.54Z"/>
  <path class="cls-1" d="M37.83,36.96c.23.01.42.13.5.38.05.16.02.32-.15.4-.11.06-.26.13-.22-.11.04-.25-.08-.35-.28-.27-.21.08-.46.18-.43.48,0,.09.26.13.09.28-.09.08-.21.07-.31,0-.13-.08-.18-.21-.16-.36.04-.34.58-.81.97-.81Z"/>
  <path class="cls-1" d="M12.99,73.87c.34,0,.66-.19,1.01-.12.15.03.32.05.37.23.03.11-.05.17-.11.24-.15.17-.27.05-.41-.03-.31-.18-.57-.07-.86.11-.31.19-.47.66-.96.55,0,0,0,0,0,0,.32-.34.64-.67.97-1.01,0,0-.01.01-.01.01Z"/>
  <path class="cls-1" d="M26.8,55.34c.02-.61,1.21-1.54,2.19-1.73-.66.63-1.49,1.05-2.19,1.73Z"/>
  <path class="cls-1" d="M15.84,43.6c-.49.4-.98.8-1.47,1.19-.07.05-.15.13-.25.05-.1-.08-.11-.19-.09-.3.13-.52.37-.98.83-1.3-.17.44-.51.8-.66,1.37.56-.42,1.02-.83,1.63-1.01Z"/>
  <path class="cls-1" d="M17.33,49.91c.44-1.37,1.6-1.95,2.7-1.23-1.15-.33-1.86.23-2.5.96-.08.09-.05.25-.18.32,0-.01-.01-.03-.02-.04Z"/>
  <path class="cls-1" d="M26.88,64.46c-.14,1.12-.03,2.17.2,3.22-.55-.59-.71-2.68-.2-3.22Z"/>
  <path class="cls-1" d="M37.19,39.34c1.1.36,2.23.64,3.34.97-1.2-.01-2.31-.36-3.34-.97Z"/>
  <path class="cls-1" d="M43.59,33.99c.04-.72.1-1.44.06-2.15,0-.08,0-.17.09-.2.13-.03.16.08.18.16.15.76.13,1.51-.33,2.19Z"/>
  <path class="cls-1" d="M39.1,47.32c-.86-.5-1.42-1.24-1.74-2.18.61.7,1.14,1.47,1.74,2.18Z"/>
  <path class="cls-1" d="M29.92,36.02c.57.28.91.66,1.15,1.15.09.19.12.39.05.59-.04.13-.07.33-.23.31-.23-.03-.08-.23-.07-.34.05-.4-.17-.68-.39-.96-.17-.22-.44-.38-.5-.75Z"/>
  <path class="cls-1" d="M17.08,30.5c-.31-.31-.53-.53-.75-.74-.23-.22-.51-.36-.82-.43-.1-.02-.25-.01-.23-.16.02-.14.17-.1.28-.11.63-.03,1.29.55,1.52,1.44Z"/>
  <path class="cls-1" d="M17.43,74.68c-.65-.33-1.33-.28-2.01-.22-.08,0-.17.04-.2-.07-.03-.12.07-.16.15-.2.52-.27,1.67-.02,2.06.49Z"/>
  <path class="cls-1" d="M43.17,42.75c.27-.7,1.69-1.15,2.49-.9-.82.23-1.66.35-2.49.9Z"/>
  <path class="cls-1" d="M22.63,31c.59-.19,1.37.04,1.63.45.07.1.16.23.04.34-.16.16-.21-.04-.28-.12-.34-.41-.88-.43-1.39-.68Z"/>
  <path class="cls-1" d="M13.8,70.18c.02.28-.16.48-.32.66-.41.48-.88.89-1.36,1.3-.54.46-1.04.34-1.58.01,1,.48,1.61-.14,2.23-.75.38-.38.69-.8,1.04-1.2,0,0-.01-.01-.01-.01Z"/>
  <path class="cls-1" d="M16.94,72.03c-.11.61-.95,1.27-1.62,1.24.61-.41,1.17-.75,1.62-1.24Z"/>
  <path class="cls-1" d="M35.21,41.8c-.44-.14-.83-.42-1.16-.79-.08-.09-.2-.2-.07-.32.11-.09.2.01.28.09.32.34.64.69.95,1.02Z"/>
  <path class="cls-1" d="M26.37,33.35c-.63-.19-1.03-.73-1.72-1.01.64.01,1.33.42,1.72,1.01Z"/>
  <path class="cls-1" d="M13.56,71.44c-.45.46-.93.86-1.52,1.12-.02-.03-.05-.07-.07-.1.5-.38,1-.75,1.5-1.13.03.04.06.07.09.11Z"/>
  <path class="cls-1" d="M22.13,41.57c-.3.13-1.69.31-2.06.26.46-.25,1.34-.37,2.06-.26Z"/>
  <path class="cls-1" d="M11.61,72.77c-.48.35-1.15,0-1.54.52.29-.55,1-.79,1.54-.52Z"/>
  <path class="cls-1" d="M17.67,72.73c-.05.56.17,1.06.47,1.65-.59-.4-.74-1.02-.47-1.65Z"/>
  <path class="cls-1" d="M18.34,55.97c.5.34.73.83,1.29.94-.56.16-.75.02-1.29-.94Z"/>
  <path class="cls-1" d="M26.09,67.25c-.11-.46-.52-.86-.29-1.5.11.57.2,1.04.29,1.5Z"/>
  <path class="cls-1" d="M34.45,40.07c-.32,0-.52-.18-.73-.32-.07-.05-.1-.13-.04-.2.05-.07.14-.07.21-.03.23.12.45.24.56.55Z"/>
  <path class="cls-1" d="M18.95,41.9c-.36.14-.7.33-1.17.24.39-.31.79-.25,1.17-.24Z"/>
  <path class="cls-1" d="M14.75,72.39c-.27-.35-.27-.57,0-1.15-.07.45-.04.8,0,1.15Z"/>
  <path class="cls-1" d="M20.98,51.04c.13-.33.34-.63.41-.99.09.43-.1.74-.41.99Z"/>
  <path class="cls-1" d="M44.25,41.23c-.26.15-.52.3-.78.45.12-.37.41-.46.78-.45Z"/>
  <path class="cls-1" d="M10.27,74.91c.27-.26.61,0,.91-.13-.27.31-.58.26-.9.12,0,0,0,.01,0,.01Z"/>
</svg>